<svg xmlns="http://www.w3.org/2000/svg" viewBox="0 0 64 64" width="64" height="64">
  <!-- favicon: the blocky fist rising through a bolt -->
  <rect x="0" y="0" width="64" height="64" rx="10" fill="#0b0b0d"/>
  <polyline points="6,40 20,36 14,48 30,44" fill="none" stroke="#1f8fd6" stroke-width="6" stroke-linecap="square" stroke-linejoin="miter"/>
  <polyline points="6,40 20,36 14,48 30,44" fill="none" stroke="#fff" stroke-width="2" stroke-linecap="square" stroke-linejoin="miter"/>
  <polyline points="58,28 44,34 52,42 38,48" fill="none" stroke="#1f8fd6" stroke-width="6" stroke-linecap="square" stroke-linejoin="miter"/>
  <polyline points="58,28 44,34 52,42 38,48" fill="none" stroke="#fff" stroke-width="2" stroke-linecap="square" stroke-linejoin="miter"/>
  <rect x="26" y="40" width="14" height="26" fill="#e6e6ea" stroke="#0b0b0d" stroke-width="2"/>
  <rect x="25" y="36" width="16" height="6" fill="#1b1b1f" stroke="#0b0b0d" stroke-width="2"/>
  <rect x="18" y="12" width="30" height="26" fill="#e6e6ea" stroke="#0b0b0d" stroke-width="2"/>
  <line x1="18" y1="24" x2="48" y2="24" stroke="#0b0b0d" stroke-width="2"/>
  <line x1="28" y1="12" x2="28" y2="24" stroke="#0b0b0d" stroke-width="2"/>
  <line x1="38" y1="12" x2="38" y2="24" stroke="#0b0b0d" stroke-width="2"/>
</svg>
